{
    "asset" : {
        "generator" : "Khronos glTF Blender I/O v1.4.40",
        "version" : "2.0"
    },
    "scene" : 0,
    "scenes" : [
        {
            "name" : "Scene",
            "nodes" : [
                0,
                1,
                2
            ]
        }
    ],
    "nodes" : [
        {
            "mesh" : 0,
            "name" : "Cube",
            "scale" : [
                1.0480937957763672,
                1,
                1
            ],
            "translation" : [
                -0.025869347155094147,
                0.9792337417602539,
                -0.02899169921875
            ]
        },
        {
            "mesh" : 1,
            "name" : "Plane",
            "translation" : [
                0.47934725880622864,
                0.06940698623657227,
                0
            ]
        },
        {
            "mesh" : 2,
            "name" : "Plane.001",
            "scale" : [
                1.2548153400421143,
                1,
                0.024625692516565323
            ],
            "translation" : [
                0.9042361974716187,
                0.12113761901855469,
                0
            ]
        }
    ],
    "materials" : [
        {
            "doubleSided" : true,
            "name" : "Paper",
            "pbrMetallicRoughness" : {
                "baseColorFactor" : [
                    0.8000000715255737,
                    0.6312770247459412,
                    0.5135351419448853,
                    1
                ],
                "metallicFactor" : 0,
                "roughnessFactor" : 0.48510637879371643
            }
        },
        {
            "doubleSided" : true,
            "name" : "BookCover",
            "pbrMetallicRoughness" : {
                "baseColorFactor" : [
                    0.10247394442558289,
                    0.04528060555458069,
                    0.032284364104270935,
                    1
                ],
                "metallicFactor" : 0,
                "roughnessFactor" : 0.8191488981246948
            }
        },
        {
            "doubleSided" : true,
            "name" : "Material",
            "pbrMetallicRoughness" : {
                "baseColorFactor" : [
                    0.8000000715255737,
                    0.018481377512216568,
                    0.018481377512216568,
                    1
                ],
                "metallicFactor" : 0,
                "roughnessFactor" : 0
            }
        }
    ],
    "meshes" : [
        {
            "name" : "Cube",
            "primitives" : [
                {
                    "attributes" : {
                        "POSITION" : 0,
                        "NORMAL" : 1,
                        "TEXCOORD_0" : 2
                    },
                    "indices" : 3,
                    "material" : 0
                }
            ]
        },
        {
            "name" : "Plane",
            "primitives" : [
                {
                    "attributes" : {
                        "POSITION" : 4,
                        "NORMAL" : 5,
                        "TEXCOORD_0" : 6
                    },
                    "indices" : 7,
                    "material" : 1
                }
            ]
        },
        {
            "name" : "Plane.001",
            "primitives" : [
                {
                    "attributes" : {
                        "POSITION" : 8,
                        "NORMAL" : 9,
                        "TEXCOORD_0" : 10
                    },
                    "indices" : 11,
                    "material" : 2
                }
            ]
        }
    ],
    "accessors" : [
        {
            "bufferView" : 0,
            "componentType" : 5126,
            "count" : 83,
            "max" : [
                1.2478303909301758,
                -0.8223694562911987,
                1.079623818397522
            ],
            "min" : [
                -0.27741459012031555,
                -0.8863667845726013,
                -1.037057638168335
            ],
            "type" : "VEC3"
        },
        {
            "bufferView" : 1,
            "componentType" : 5126,
            "count" : 83,
            "type" : "VEC3"
        },
        {
            "bufferView" : 2,
            "componentType" : 5126,
            "count" : 83,
            "type" : "VEC2"
        },
        {
            "bufferView" : 3,
            "componentType" : 5123,
            "count" : 132,
            "type" : "SCALAR"
        },
        {
            "bufferView" : 4,
            "componentType" : 5126,
            "count" : 116,
            "max" : [
                0.8235430121421814,
                0.03837064281105995,
                1.0959261655807495
            ],
            "min" : [
                -0.8235430121421814,
                -0.008027100935578346,
                -1.0959261655807495
            ],
            "type" : "VEC3"
        },
        {
            "bufferView" : 5,
            "componentType" : 5126,
            "count" : 116,
            "type" : "VEC3"
        },
        {
            "bufferView" : 6,
            "componentType" : 5126,
            "count" : 116,
            "type" : "VEC2"
        },
        {
            "bufferView" : 7,
            "componentType" : 5123,
            "count" : 180,
            "type" : "SCALAR"
        },
        {
            "bufferView" : 8,
            "componentType" : 5126,
            "count" : 20,
            "max" : [
                0.3477092981338501,
                0.033169861882925034,
                1.5734188556671143
            ],
            "min" : [
                -0.9771923422813416,
                -0.025814946740865707,
                -0.5153723359107971
            ],
            "type" : "VEC3"
        },
        {
            "bufferView" : 9,
            "componentType" : 5126,
            "count" : 20,
            "type" : "VEC3"
        },
        {
            "bufferView" : 10,
            "componentType" : 5126,
            "count" : 20,
            "type" : "VEC2"
        },
        {
            "bufferView" : 11,
            "componentType" : 5123,
            "count" : 30,
            "type" : "SCALAR"
        }
    ],
    "bufferViews" : [
        {
            "buffer" : 0,
            "byteLength" : 996,
            "byteOffset" : 0
        },
        {
            "buffer" : 0,
            "byteLength" : 996,
            "byteOffset" : 996
        },
        {
            "buffer" : 0,
            "byteLength" : 664,
            "byteOffset" : 1992
        },
        {
            "buffer" : 0,
            "byteLength" : 264,
            "byteOffset" : 2656
        },
        {
            "buffer" : 0,
            "byteLength" : 1392,
            "byteOffset" : 2920
        },
        {
            "buffer" : 0,
            "byteLength" : 1392,
            "byteOffset" : 4312
        },
        {
            "buffer" : 0,
            "byteLength" : 928,
            "byteOffset" : 5704
        },
        {
            "buffer" : 0,
            "byteLength" : 360,
            "byteOffset" : 6632
        },
        {
            "buffer" : 0,
            "byteLength" : 240,
            "byteOffset" : 6992
        },
        {
            "buffer" : 0,
            "byteLength" : 240,
            "byteOffset" : 7232
        },
        {
            "buffer" : 0,
            "byteLength" : 160,
            "byteOffset" : 7472
        },
        {
            "buffer" : 0,
            "byteLength" : 60,
            "byteOffset" : 7632
        }
    ],
    "buffers" : [
        {
            "byteLength" : 7692,
            "uri" : "data:application/octet-stream;base64,"
        }
    ]
}
