{
    "asset" : {
        "generator" : "Khronos glTF Blender I/O v1.4.40",
        "version" : "2.0"
    },
    "extensionsUsed" : [
        "KHR_materials_clearcoat"
    ],
    "scene" : 0,
    "scenes" : [
        {
            "name" : "Scene",
            "nodes" : [
                0,
                1,
                2,
                3
            ]
        }
    ],
    "nodes" : [
        {
            "mesh" : 0,
            "name" : "Desk",
            "scale" : [
                2.5553770065307617,
                0.11854982376098633,
                0.37532851099967957
            ],
            "translation" : [
                0,
                0,
                4.5
            ]
        },
        {
            "mesh" : 1,
            "name" : "Cube",
            "rotation" : [
                0,
                0.1148601695895195,
                0,
                0.9933817386627197
            ],
            "scale" : [
                0.9230443239212036,
                0.125254824757576,
                2.1532623767852783
            ],
            "translation" : [
                1.3413825035095215,
                5.754879951477051,
                1.574084997177124
            ]
        },
        {
            "name" : "Light",
            "rotation" : [
                0.16907575726509094,
                0.7558803558349609,
                -0.27217137813568115,
                0.570947527885437
            ],
            "translation" : [
                4.076245307922363,
                5.903861999511719,
                -1.0054539442062378
            ]
        },
        {
            "name" : "Camera",
            "rotation" : [
                0.483536034822464,
                0.33687159419059753,
                -0.20870360732078552,
                0.7804827094078064
            ],
            "translation" : [
                7.358891487121582,
                4.958309173583984,
                6.925790786743164
            ]
        }
    ],
    "materials" : [
        {
            "doubleSided" : true,
            "extensions" : {
                "KHR_materials_clearcoat" : {
                    "clearcoatFactor" : 0.26241135597229004,
                    "clearcoatRoughnessFactor" : 0.029999999329447746
                }
            },
            "name" : "metal",
            "pbrMetallicRoughness" : {
                "baseColorFactor" : [
                    0.5488520264625549,
                    0.5488520264625549,
                    0.5488520264625549,
                    1
                ],
                "roughnessFactor" : 0.39007091522216797
            }
        },
        {
            "doubleSided" : true,
            "extensions" : {
                "KHR_materials_clearcoat" : {
                    "clearcoatFactor" : 0.19148936867713928,
                    "clearcoatRoughnessFactor" : 0.029999999329447746
                }
            },
            "name" : "wood",
            "pbrMetallicRoughness" : {
                "baseColorFactor" : [
                    0.930111289024353,
                    0.3371635377407074,
                    0.22696593403816223,
                    1
                ],
                "metallicFactor" : 0,
                "roughnessFactor" : 0.5418440103530884
            }
        },
        {
            "doubleSided" : true,
            "name" : "Pot",
            "pbrMetallicRoughness" : {
                "baseColorFactor" : [
                    0.12371040135622025,
                    0.03943530470132828,
                    0.01608618162572384,
                    1
                ],
                "metallicFactor" : 0,
                "roughnessFactor" : 0.8829787373542786
            }
        },
        {
            "doubleSided" : true,
            "name" : "Dirt",
            "pbrMetallicRoughness" : {
                "baseColorFactor" : [
                    0.011087704449892044,
                    0.004240776877850294,
                    0.000524676579516381,
                    1
                ],
                "metallicFactor" : 0
            }
        },
        {
            "doubleSided" : true,
            "name" : "Leaf",
            "pbrMetallicRoughness" : {
                "baseColorFactor" : [
                    0.013491260819137096,
                    0.15743261575698853,
                    0,
                    1
                ],
                "metallicFactor" : 0,
                "roughnessFactor" : 0.5
            }
        },
        {
            "doubleSided" : true,
            "name" : "KeyboardMaterial",
            "pbrMetallicRoughness" : {
                "baseColorFactor" : [
                    0.031063420698046684,
                    0.031063420698046684,
                    0.031063420698046684,
                    1
                ],
                "metallicFactor" : 0,
                "roughnessFactor" : 0.40780144929885864
            }
        },
        {
            "doubleSided" : true,
            "name" : "Material.001",
            "pbrMetallicRoughness" : {
                "baseColorFactor" : [
                    0.02539389207959175,
                    0.02539389207959175,
                    0.02539389207959175,
                    1
                ],
                "metallicFactor" : 0,
                "roughnessFactor" : 0.04609899967908859
            }
        }
    ],
    "meshes" : [
        {
            "name" : "Cube.003",
            "primitives" : [
                {
                    "attributes" : {
                        "POSITION" : 0,
                        "NORMAL" : 1,
                        "TEXCOORD_0" : 2
                    },
                    "indices" : 3,
                    "material" : 0
                },
                {
                    "attributes" : {
                        "POSITION" : 4,
                        "NORMAL" : 5,
                        "TEXCOORD_0" : 6
                    },
                    "indices" : 7,
                    "material" : 1
                },
                {
                    "attributes" : {
                        "POSITION" : 8,
                        "NORMAL" : 9,
                        "TEXCOORD_0" : 10
                    },
                    "indices" : 11,
                    "material" : 2
                },
                {
                    "attributes" : {
                        "POSITION" : 12,
                        "NORMAL" : 13,
                        "TEXCOORD_0" : 14
                    },
                    "indices" : 15,
                    "material" : 3
                },
                {
                    "attributes" : {
                        "POSITION" : 16,
                        "NORMAL" : 17,
                        "TEXCOORD_0" : 18
                    },
                    "indices" : 19,
                    "material" : 4
                }
            ]
        },
        {
            "name" : "Cube.001",
            "primitives" : [
                {
                    "attributes" : {
                        "POSITION" : 20,
                        "NORMAL" : 21,
                        "TEXCOORD_0" : 22
                    },
                    "indices" : 23,
                    "material" : 5
                },
                {
                    "attributes" : {
                        "POSITION" : 24,
                        "NORMAL" : 25,
                        "TEXCOORD_0" : 26
                    },
                    "indices" : 27,
                    "material" : 6
                }
            ]
        }
    ],
    "accessors" : [
        {
            "bufferView" : 0,
            "componentType" : 5126,
            "count" : 96,
            "max" : [
                1,
                45.909217834472656,
                1
            ],
            "min" : [
                -1,
                -0.6638354063034058,
                -24.935483932495117
            ],
            "type" : "VEC3"
        },
        {
            "bufferView" : 1,
            "componentType" : 5126,
            "count" : 96,
            "type" : "VEC3"
        },
        {
            "bufferView" : 2,
            "componentType" : 5126,
            "count" : 96,
            "type" : "VEC2"
        },
        {
            "bufferView" : 3,
            "componentType" : 5123,
            "count" : 144,
            "type" : "SCALAR"
        },
        {
            "bufferView" : 4,
            "componentType" : 5126,
            "count" : 24,
            "max" : [
                1.1083372831344604,
                48.47450256347656,
                4.5702362060546875
            ],
            "min" : [
                -1.1083372831344604,
                45.966552734375,
                -28.549232482910156
            ],
            "type" : "VEC3"
        },
        {
            "bufferView" : 5,
            "componentType" : 5126,
            "count" : 24,
            "type" : "VEC3"
        },
        {
            "bufferView" : 6,
            "componentType" : 5126,
            "count" : 24,
            "type" : "VEC2"
        },
        {
            "bufferView" : 7,
            "componentType" : 5123,
            "count" : 36,
            "type" : "SCALAR"
        },
        {
            "bufferView" : 8,
            "componentType" : 5126,
            "count" : 674,
            "max" : [
                -0.39184534549713135,
                54.97462844848633,
                -22.46175193786621
            ],
            "min" : [
                -0.752424955368042,
                48.411109924316406,
                -24.916711807250977
            ],
            "type" : "VEC3"
        },
        {
            "bufferView" : 9,
            "componentType" : 5126,
            "count" : 674,
            "type" : "VEC3"
        },
        {
            "bufferView" : 10,
            "componentType" : 5126,
            "count" : 674,
            "type" : "VEC2"
        },
        {
            "bufferView" : 11,
            "componentType" : 5123,
            "count" : 756,
            "type" : "SCALAR"
        },
        {
            "bufferView" : 12,
            "componentType" : 5126,
            "count" : 300,
            "max" : [
                -0.4311567544937134,
                53.98710632324219,
                -22.72288703918457
            ],
            "min" : [
                -0.7114706039428711,
                49.005828857421875,
                -24.602632522583008
            ],
            "type" : "VEC3"
        },
        {
            "bufferView" : 13,
            "componentType" : 5126,
            "count" : 300,
            "type" : "VEC3"
        },
        {
            "bufferView" : 14,
            "componentType" : 5126,
            "count" : 300,
            "type" : "VEC2"
        },
        {
            "bufferView" : 15,
            "componentType" : 5123,
            "count" : 378,
            "type" : "SCALAR"
        },
        {
            "bufferView" : 16,
            "componentType" : 5126,
            "count" : 201,
            "max" : [
                -0.3207249343395233,
                59.25286102294922,
                -21.588197708129883
            ],
            "min" : [
                -0.8874263763427734,
                52.909332275390625,
                -25.44369125366211
            ],
            "type" : "VEC3"
        },
        {
            "bufferView" : 17,
            "componentType" : 5126,
            "count" : 201,
            "type" : "VEC3"
        },
        {
            "bufferView" : 18,
            "componentType" : 5126,
            "count" : 201,
            "type" : "VEC2"
        },
        {
            "bufferView" : 19,
            "componentType" : 5123,
            "count" : 327,
            "type" : "SCALAR"
        },
        {
            "bufferView" : 20,
            "componentType" : 5126,
            "count" : 2888,
            "max" : [
                0.41406702995300293,
                1.6123230457305908,
                0.968993067741394
            ],
            "min" : [
                -0.9352849125862122,
                -0.012999773025512695,
                -0.470777690410614
            ],
            "type" : "VEC3"
        },
        {
            "bufferView" : 21,
            "componentType" : 5126,
            "count" : 2888,
            "type" : "VEC3"
        },
        {
            "bufferView" : 22,
            "componentType" : 5126,
            "count" : 2888,
            "type" : "VEC2"
        },
        {
            "bufferView" : 23,
            "componentType" : 5123,
            "count" : 3138,
            "type" : "SCALAR"
        },
        {
            "bufferView" : 24,
            "componentType" : 5126,
            "count" : 20,
            "max" : [
                0.41406702995300293,
                1,
                0.968993067741394
            ],
            "min" : [
                -0.9352849125862122,
                -0.012999773025512695,
                -0.470777690410614
            ],
            "type" : "VEC3"
        },
        {
            "bufferView" : 25,
            "componentType" : 5126,
            "count" : 20,
            "type" : "VEC3"
        },
        {
            "bufferView" : 26,
            "componentType" : 5126,
            "count" : 20,
            "type" : "VEC2"
        },
        {
            "bufferView" : 27,
            "componentType" : 5123,
            "count" : 30,
            "type" : "SCALAR"
        }
    ],
    "bufferViews" : [
        {
            "buffer" : 0,
            "byteLength" : 1152,
            "byteOffset" : 0
        },
        {
            "buffer" : 0,
            "byteLength" : 1152,
            "byteOffset" : 1152
        },
        {
            "buffer" : 0,
            "byteLength" : 768,
            "byteOffset" : 2304
        },
        {
            "buffer" : 0,
            "byteLength" : 288,
            "byteOffset" : 3072
        },
        {
            "buffer" : 0,
            "byteLength" : 288,
            "byteOffset" : 3360
        },
        {
            "buffer" : 0,
            "byteLength" : 288,
            "byteOffset" : 3648
        },
        {
            "buffer" : 0,
            "byteLength" : 192,
            "byteOffset" : 3936
        },
        {
            "buffer" : 0,
            "byteLength" : 72,
            "byteOffset" : 4128
        },
        {
            "buffer" : 0,
            "byteLength" : 8088,
            "byteOffset" : 4200
        },
        {
            "buffer" : 0,
            "byteLength" : 8088,
            "byteOffset" : 12288
        },
        {
            "buffer" : 0,
            "byteLength" : 5392,
            "byteOffset" : 20376
        },
        {
            "buffer" : 0,
            "byteLength" : 1512,
            "byteOffset" : 25768
        },
        {
            "buffer" : 0,
            "byteLength" : 3600,
            "byteOffset" : 27280
        },
        {
            "buffer" : 0,
            "byteLength" : 3600,
            "byteOffset" : 30880
        },
        {
            "buffer" : 0,
            "byteLength" : 2400,
            "byteOffset" : 34480
        },
        {
            "buffer" : 0,
            "byteLength" : 756,
            "byteOffset" : 36880
        },
        {
            "buffer" : 0,
            "byteLength" : 2412,
            "byteOffset" : 37636
        },
        {
            "buffer" : 0,
            "byteLength" : 2412,
            "byteOffset" : 40048
        },
        {
            "buffer" : 0,
            "byteLength" : 1608,
            "byteOffset" : 42460
        },
        {
            "buffer" : 0,
            "byteLength" : 654,
            "byteOffset" : 44068
        },
        {
            "buffer" : 0,
            "byteLength" : 34656,
            "byteOffset" : 44724
        },
        {
            "buffer" : 0,
            "byteLength" : 34656,
            "byteOffset" : 79380
        },
        {
            "buffer" : 0,
            "byteLength" : 23104,
            "byteOffset" : 114036
        },
        {
            "buffer" : 0,
            "byteLength" : 6276,
            "byteOffset" : 137140
        },
        {
            "buffer" : 0,
            "byteLength" : 240,
            "byteOffset" : 143416
        },
        {
            "buffer" : 0,
            "byteLength" : 240,
            "byteOffset" : 143656
        },
        {
            "buffer" : 0,
            "byteLength" : 160,
            "byteOffset" : 143896
        },
        {
            "buffer" : 0,
            "byteLength" : 60,
            "byteOffset" : 144056
        }
    ],
    "buffers" : [
        {
            "byteLength" : 144116,
            "uri" : "data:application/octet-stream;base64,"
        }
    ]
}
