{
    "asset" : {
        "generator" : "Khronos glTF Blender I/O v1.4.40",
        "version" : "2.0"
    },
    "scene" : 0,
    "scenes" : [
        {
            "name" : "Scene",
            "nodes" : [
                0,
                1,
                2
            ]
        }
    ],
    "nodes" : [
        {
            "name" : "Light",
            "rotation" : [
                0.16907575726509094,
                0.7558803558349609,
                -0.27217137813568115,
                0.570947527885437
            ],
            "translation" : [
                4.076245307922363,
                5.903861999511719,
                -1.0054539442062378
            ]
        },
        {
            "name" : "Camera",
            "rotation" : [
                0.483536034822464,
                0.33687159419059753,
                -0.20870360732078552,
                0.7804827094078064
            ],
            "translation" : [
                7.358891487121582,
                4.958309173583984,
                6.925790786743164
            ]
        },
        {
            "mesh" : 0,
            "name" : "Cube",
            "scale" : [
                0.9230443239212036,
                0.125254824757576,
                2.1532623767852783
            ]
        }
    ],
    "materials" : [
        {
            "doubleSided" : true,
            "name" : "KeyboardMaterial",
            "pbrMetallicRoughness" : {
                "baseColorFactor" : [
                    0.018848611041903496,
                    0.018848611041903496,
                    0.018848611041903496,
                    1
                ],
                "metallicFactor" : 0,
                "roughnessFactor" : 0.6560283899307251
            }
        }
    ],
    "meshes" : [
        {
            "name" : "Cube.001",
            "primitives" : [
                {
                    "attributes" : {
                        "POSITION" : 0,
                        "NORMAL" : 1,
                        "TEXCOORD_0" : 2
                    },
                    "indices" : 3,
                    "material" : 0
                }
            ]
        }
    ],
    "accessors" : [
        {
            "bufferView" : 0,
            "componentType" : 5126,
            "count" : 2112,
            "max" : [
                0.41406702995300293,
                1.6123230457305908,
                0.968993067741394
            ],
            "min" : [
                -0.9352849125862122,
                -0.012999773025512695,
                -0.470777690410614
            ],
            "type" : "VEC3"
        },
        {
            "bufferView" : 1,
            "componentType" : 5126,
            "count" : 2112,
            "type" : "VEC3"
        },
        {
            "bufferView" : 2,
            "componentType" : 5126,
            "count" : 2112,
            "type" : "VEC2"
        },
        {
            "bufferView" : 3,
            "componentType" : 5123,
            "count" : 3168,
            "type" : "SCALAR"
        }
    ],
    "bufferViews" : [
        {
            "buffer" : 0,
            "byteLength" : 25344,
            "byteOffset" : 0
        },
        {
            "buffer" : 0,
            "byteLength" : 25344,
            "byteOffset" : 25344
        },
        {
            "buffer" : 0,
            "byteLength" : 16896,
            "byteOffset" : 50688
        },
        {
            "buffer" : 0,
            "byteLength" : 6336,
            "byteOffset" : 67584
        }
    ],
    "buffers" : [
        {
            "byteLength" : 73920,
            "uri" : "data:application/octet-stream;base64,"
        }
    ]
}
