{
    "asset" : {
        "generator" : "Khronos glTF Blender I/O v1.4.40",
        "version" : "2.0"
    },
    "scene" : 0,
    "scenes" : [
        {
            "name" : "Scene",
            "nodes" : [
                0,
                1
            ]
        }
    ],
    "nodes" : [
        {
            "mesh" : 0,
            "name" : "Monitor",
            "scale" : [
                1,
                0.5504152178764343,
                1
            ]
        },
        {
            "name" : "Camera",
            "rotation" : [
                0.5947620868682861,
                0.25847774744033813,
                -0.2100256234407425,
                0.7316669821739197
            ],
            "translation" : [
                8.26083755493164,
                4.342151641845703,
                9.746790885925293
            ]
        }
    ],
    "materials" : [
        {
            "doubleSided" : true,
            "name" : "Monitor2_mat",
            "pbrMetallicRoughness" : {
                "baseColorFactor" : [
                    0.054968539625406265,
                    0.054968539625406265,
                    0.054968539625406265,
                    1
                ],
                "metallicFactor" : 0,
                "roughnessFactor" : 0.5
            }
        },
        {
            "doubleSided" : true,
            "name" : "Monitor3_mat",
            "pbrMetallicRoughness" : {
                "baseColorFactor" : [
                    0.021979346871376038,
                    0.021979346871376038,
                    0.021979346871376038,
                    1
                ],
                "metallicFactor" : 0,
                "roughnessFactor" : 0.5
            }
        },
        {
            "doubleSided" : true,
            "name" : "Monitor4_mat",
            "pbrMetallicRoughness" : {
                "baseColorFactor" : [
                    0.039679642766714096,
                    0.039679642766714096,
                    0.039679642766714096,
                    1
                ],
                "metallicFactor" : 0,
                "roughnessFactor" : 0.5
            }
        }
    ],
    "meshes" : [
        {
            "name" : "MonitorMesh",
            "primitives" : [
                {
                    "attributes" : {
                        "POSITION" : 0,
                        "NORMAL" : 1
                    },
                    "indices" : 2,
                    "material" : 0
                },
                {
                    "attributes" : {
                        "POSITION" : 3,
                        "NORMAL" : 4
                    },
                    "indices" : 5,
                    "material" : 1
                },
                {
                    "attributes" : {
                        "POSITION" : 6,
                        "NORMAL" : 7
                    },
                    "indices" : 8,
                    "material" : 2
                }
            ]
        }
    ],
    "accessors" : [
        {
            "bufferView" : 0,
            "componentType" : 5126,
            "count" : 32,
            "max" : [
                3.240802049636841,
                7.359053611755371,
                0.07045146822929382
            ],
            "min" : [
                -3.2408015727996826,
                1.2550039291381836,
                -0.18156588077545166
            ],
            "type" : "VEC3"
        },
        {
            "bufferView" : 1,
            "componentType" : 5126,
            "count" : 32,
            "type" : "VEC3"
        },
        {
            "bufferView" : 2,
            "componentType" : 5123,
            "count" : 48,
            "type" : "SCALAR"
        },
        {
            "bufferView" : 3,
            "componentType" : 5126,
            "count" : 158,
            "max" : [
                3.271799087524414,
                7.415369987487793,
                0.07045148313045502
            ],
            "min" : [
                -3.271798610687256,
                1.1986883878707886,
                -0.11176817119121552
            ],
            "type" : "VEC3"
        },
        {
            "bufferView" : 4,
            "componentType" : 5126,
            "count" : 158,
            "type" : "VEC3"
        },
        {
            "bufferView" : 5,
            "componentType" : 5123,
            "count" : 300,
            "type" : "SCALAR"
        },
        {
            "bufferView" : 6,
            "componentType" : 5126,
            "count" : 816,
            "max" : [
                3.271799087524414,
                7.3208513259887695,
                0.996976912021637
            ],
            "min" : [
                -3.271798610687256,
                0,
                -0.996976912021637
            ],
            "type" : "VEC3"
        },
        {
            "bufferView" : 7,
            "componentType" : 5126,
            "count" : 816,
            "type" : "VEC3"
        },
        {
            "bufferView" : 8,
            "componentType" : 5123,
            "count" : 1344,
            "type" : "SCALAR"
        }
    ],
    "bufferViews" : [
        {
            "buffer" : 0,
            "byteLength" : 384,
            "byteOffset" : 0
        },
        {
            "buffer" : 0,
            "byteLength" : 384,
            "byteOffset" : 384
        },
        {
            "buffer" : 0,
            "byteLength" : 96,
            "byteOffset" : 768
        },
        {
            "buffer" : 0,
            "byteLength" : 1896,
            "byteOffset" : 864
        },
        {
            "buffer" : 0,
            "byteLength" : 1896,
            "byteOffset" : 2760
        },
        {
            "buffer" : 0,
            "byteLength" : 600,
            "byteOffset" : 4656
        },
        {
            "buffer" : 0,
            "byteLength" : 9792,
            "byteOffset" : 5256
        },
        {
            "buffer" : 0,
            "byteLength" : 9792,
            "byteOffset" : 15048
        },
        {
            "buffer" : 0,
            "byteLength" : 2688,
            "byteOffset" : 24840
        }
    ],
    "buffers" : [
        {
            "byteLength" : 27528,
            "uri" : "data:application/octet-stream;base64,"
        }
    ]
}
