{
    "asset" : {
        "generator" : "Khronos glTF Blender I/O v1.4.40",
        "version" : "2.0"
    },
    "scene" : 0,
    "scenes" : [
        {
            "name" : "Scene",
            "nodes" : [
                0,
                1,
                2
            ]
        }
    ],
    "nodes" : [
        {
            "name" : "Light",
            "rotation" : [
                0.16907575726509094,
                0.7558803558349609,
                -0.27217137813568115,
                0.570947527885437
            ],
            "translation" : [
                4.076245307922363,
                5.903861999511719,
                -1.0054539442062378
            ]
        },
        {
            "name" : "Camera",
            "rotation" : [
                0.483536034822464,
                0.33687159419059753,
                -0.20870360732078552,
                0.7804827094078064
            ],
            "translation" : [
                7.358891487121582,
                4.958309173583984,
                6.925790786743164
            ]
        },
        {
            "mesh" : 0,
            "name" : "Cylinder"
        }
    ],
    "materials" : [
        {
            "doubleSided" : true,
            "name" : "Pot",
            "pbrMetallicRoughness" : {
                "baseColorFactor" : [
                    0.12371040135622025,
                    0.03943530470132828,
                    0.01608618162572384,
                    1
                ],
                "metallicFactor" : 0,
                "roughnessFactor" : 0.8829787373542786
            }
        },
        {
            "doubleSided" : true,
            "name" : "Dirt",
            "pbrMetallicRoughness" : {
                "baseColorFactor" : [
                    0.011087704449892044,
                    0.004240776877850294,
                    0.000524676579516381,
                    1
                ],
                "metallicFactor" : 0
            }
        },
        {
            "doubleSided" : true,
            "name" : "Leaf",
            "pbrMetallicRoughness" : {
                "baseColorFactor" : [
                    0.013491260819137096,
                    0.15743261575698853,
                    0,
                    1
                ],
                "metallicFactor" : 0,
                "roughnessFactor" : 0.5
            }
        }
    ],
    "meshes" : [
        {
            "name" : "Cylinder",
            "primitives" : [
                {
                    "attributes" : {
                        "POSITION" : 0,
                        "NORMAL" : 1,
                        "TEXCOORD_0" : 2
                    },
                    "indices" : 3,
                    "material" : 0
                },
                {
                    "attributes" : {
                        "POSITION" : 4,
                        "NORMAL" : 5,
                        "TEXCOORD_0" : 6
                    },
                    "indices" : 7,
                    "material" : 1
                },
                {
                    "attributes" : {
                        "POSITION" : 8,
                        "NORMAL" : 9,
                        "TEXCOORD_0" : 10
                    },
                    "indices" : 11,
                    "material" : 2
                }
            ]
        }
    ],
    "accessors" : [
        {
            "bufferView" : 0,
            "componentType" : 5126,
            "count" : 388,
            "max" : [
                1.5356945991516113,
                1.5936795473098755,
                1.5356945991516113
            ],
            "min" : [
                -1.5356945991516113,
                -1,
                -1.5356945991516113
            ],
            "type" : "VEC3"
        },
        {
            "bufferView" : 1,
            "componentType" : 5126,
            "count" : 388,
            "type" : "VEC3"
        },
        {
            "bufferView" : 2,
            "componentType" : 5126,
            "count" : 388,
            "type" : "VEC2"
        },
        {
            "bufferView" : 3,
            "componentType" : 5123,
            "count" : 756,
            "type" : "SCALAR"
        },
        {
            "bufferView" : 4,
            "componentType" : 5126,
            "count" : 256,
            "max" : [
                1.2008432149887085,
                1.2034443616867065,
                1.2089881896972656
            ],
            "min" : [
                -1.1868488788604736,
                -0.7649868726730347,
                -1.1427515745162964
            ],
            "type" : "VEC3"
        },
        {
            "bufferView" : 5,
            "componentType" : 5126,
            "count" : 256,
            "type" : "VEC3"
        },
        {
            "bufferView" : 6,
            "componentType" : 5126,
            "count" : 256,
            "type" : "VEC2"
        },
        {
            "bufferView" : 7,
            "componentType" : 5123,
            "count" : 378,
            "type" : "SCALAR"
        },
        {
            "bufferView" : 8,
            "componentType" : 5126,
            "count" : 201,
            "max" : [
                2.1414928436279297,
                3.284291982650757,
                2.6285924911499023
            ],
            "min" : [
                -2.685626268386841,
                0.777544379234314,
                -2.194995403289795
            ],
            "type" : "VEC3"
        },
        {
            "bufferView" : 9,
            "componentType" : 5126,
            "count" : 201,
            "type" : "VEC3"
        },
        {
            "bufferView" : 10,
            "componentType" : 5126,
            "count" : 201,
            "type" : "VEC2"
        },
        {
            "bufferView" : 11,
            "componentType" : 5123,
            "count" : 327,
            "type" : "SCALAR"
        }
    ],
    "bufferViews" : [
        {
            "buffer" : 0,
            "byteLength" : 4656,
            "byteOffset" : 0
        },
        {
            "buffer" : 0,
            "byteLength" : 4656,
            "byteOffset" : 4656
        },
        {
            "buffer" : 0,
            "byteLength" : 3104,
            "byteOffset" : 9312
        },
        {
            "buffer" : 0,
            "byteLength" : 1512,
            "byteOffset" : 12416
        },
        {
            "buffer" : 0,
            "byteLength" : 3072,
            "byteOffset" : 13928
        },
        {
            "buffer" : 0,
            "byteLength" : 3072,
            "byteOffset" : 17000
        },
        {
            "buffer" : 0,
            "byteLength" : 2048,
            "byteOffset" : 20072
        },
        {
            "buffer" : 0,
            "byteLength" : 756,
            "byteOffset" : 22120
        },
        {
            "buffer" : 0,
            "byteLength" : 2412,
            "byteOffset" : 22876
        },
        {
            "buffer" : 0,
            "byteLength" : 2412,
            "byteOffset" : 25288
        },
        {
            "buffer" : 0,
            "byteLength" : 1608,
            "byteOffset" : 27700
        },
        {
            "buffer" : 0,
            "byteLength" : 654,
            "byteOffset" : 29308
        }
    ],
    "buffers" : [
        {
            "byteLength" : 29964,
            "uri" : "data:application/octet-stream;base64,"
        }
    ]
}
