{
    "asset" : {
        "generator" : "Khronos glTF Blender I/O v1.4.40",
        "version" : "2.0"
    },
    "scene" : 0,
    "scenes" : [
        {
            "name" : "Scene",
            "nodes" : [
                0,
                1
            ]
        }
    ],
    "nodes" : [
        {
            "mesh" : 0,
            "name" : "Cube",
            "scale" : [
                5.424403190612793,
                4.01183557510376,
                0.27291250228881836
            ],
            "translation" : [
                -13.71041202545166,
                3.2400498390197754,
                -13.818500518798828
            ]
        },
        {
            "mesh" : 1,
            "name" : "Cube.001",
            "scale" : [
                20,
                8.050000190734863,
                13.75
            ]
        }
    ],
    "materials" : [
        {
            "doubleSided" : true,
            "name" : "Material.002",
            "pbrMetallicRoughness" : {
                "baseColorFactor" : [
                    0.800000011920929,
                    0.800000011920929,
                    0.800000011920929,
                    1
                ],
                "metallicFactor" : 0,
                "roughnessFactor" : 0.4000000059604645
            }
        },
        {
            "doubleSided" : true,
            "name" : "Wall",
            "pbrMetallicRoughness" : {
                "metallicFactor" : 0,
                "roughnessFactor" : 0.5
            }
        },
        {
            "doubleSided" : true,
            "name" : "Floor",
            "pbrMetallicRoughness" : {
                "baseColorFactor" : [
                    0.8000000715255737,
                    0.46320444345474243,
                    0.26857951283454895,
                    1
                ],
                "metallicFactor" : 0,
                "roughnessFactor" : 0.5
            }
        }
    ],
    "meshes" : [
        {
            "name" : "Cube",
            "primitives" : [
                {
                    "attributes" : {
                        "POSITION" : 0,
                        "NORMAL" : 1,
                        "TEXCOORD_0" : 2
                    },
                    "indices" : 3,
                    "material" : 0
                }
            ]
        },
        {
            "name" : "Cube.005",
            "primitives" : [
                {
                    "attributes" : {
                        "POSITION" : 4,
                        "NORMAL" : 5,
                        "TEXCOORD_0" : 6
                    },
                    "indices" : 7,
                    "material" : 1
                },
                {
                    "attributes" : {
                        "POSITION" : 8,
                        "NORMAL" : 9,
                        "TEXCOORD_0" : 10
                    },
                    "indices" : 11,
                    "material" : 2
                }
            ]
        }
    ],
    "accessors" : [
        {
            "bufferView" : 0,
            "componentType" : 5126,
            "count" : 351,
            "max" : [
                1,
                1,
                1
            ],
            "min" : [
                -1,
                -1,
                -1
            ],
            "type" : "VEC3"
        },
        {
            "bufferView" : 1,
            "componentType" : 5126,
            "count" : 351,
            "type" : "VEC3"
        },
        {
            "bufferView" : 2,
            "componentType" : 5126,
            "count" : 351,
            "type" : "VEC2"
        },
        {
            "bufferView" : 3,
            "componentType" : 5123,
            "count" : 564,
            "type" : "SCALAR"
        },
        {
            "bufferView" : 4,
            "componentType" : 5126,
            "count" : 22,
            "max" : [
                1,
                1,
                1
            ],
            "min" : [
                -1,
                -1,
                -1
            ],
            "type" : "VEC3"
        },
        {
            "bufferView" : 5,
            "componentType" : 5126,
            "count" : 22,
            "type" : "VEC3"
        },
        {
            "bufferView" : 6,
            "componentType" : 5126,
            "count" : 22,
            "type" : "VEC2"
        },
        {
            "bufferView" : 7,
            "componentType" : 5123,
            "count" : 42,
            "type" : "SCALAR"
        },
        {
            "bufferView" : 8,
            "componentType" : 5126,
            "count" : 4,
            "max" : [
                1,
                -1,
                1
            ],
            "min" : [
                -1,
                -1,
                -1
            ],
            "type" : "VEC3"
        },
        {
            "bufferView" : 9,
            "componentType" : 5126,
            "count" : 4,
            "type" : "VEC3"
        },
        {
            "bufferView" : 10,
            "componentType" : 5126,
            "count" : 4,
            "type" : "VEC2"
        },
        {
            "bufferView" : 11,
            "componentType" : 5123,
            "count" : 6,
            "type" : "SCALAR"
        }
    ],
    "bufferViews" : [
        {
            "buffer" : 0,
            "byteLength" : 4212,
            "byteOffset" : 0
        },
        {
            "buffer" : 0,
            "byteLength" : 4212,
            "byteOffset" : 4212
        },
        {
            "buffer" : 0,
            "byteLength" : 2808,
            "byteOffset" : 8424
        },
        {
            "buffer" : 0,
            "byteLength" : 1128,
            "byteOffset" : 11232
        },
        {
            "buffer" : 0,
            "byteLength" : 264,
            "byteOffset" : 12360
        },
        {
            "buffer" : 0,
            "byteLength" : 264,
            "byteOffset" : 12624
        },
        {
            "buffer" : 0,
            "byteLength" : 176,
            "byteOffset" : 12888
        },
        {
            "buffer" : 0,
            "byteLength" : 84,
            "byteOffset" : 13064
        },
        {
            "buffer" : 0,
            "byteLength" : 48,
            "byteOffset" : 13148
        },
        {
            "buffer" : 0,
            "byteLength" : 48,
            "byteOffset" : 13196
        },
        {
            "buffer" : 0,
            "byteLength" : 32,
            "byteOffset" : 13244
        },
        {
            "buffer" : 0,
            "byteLength" : 12,
            "byteOffset" : 13276
        }
    ],
    "buffers" : [
        {
            "byteLength" : 13288,
            "uri" : "data:application/octet-stream;base64,"
        }
    ]
}
